<?xml version="1.0" encoding="UTF-8" standalone="no"?>
<!-- Generator: Adobe Illustrator 18.0.0, SVG Export Plug-In . SVG Version: 6.00 Build 0)  -->

<svg
   xmlns:dc="http://purl.org/dc/elements/1.1/"
   xmlns:cc="http://creativecommons.org/ns#"
   xmlns:rdf="http://www.w3.org/1999/02/22-rdf-syntax-ns#"
   xmlns:svg="http://www.w3.org/2000/svg"
   xmlns="http://www.w3.org/2000/svg"
   xmlns:sodipodi="http://sodipodi.sourceforge.net/DTD/sodipodi-0.dtd"
   xmlns:inkscape="http://www.inkscape.org/namespaces/inkscape"
   version="1.1"
   id="Capa_1"
   x="0px"
   y="0px"
   viewBox="0 0 215.00001 450.00002"
   xml:space="preserve"
   sodipodi:docname="calca.svg"
   width="215"
   height="450"
   inkscape:version="0.92.3 (5aff6ba, 2018-11-25)"><metadata
   id="metadata937"><rdf:RDF><cc:Work
       rdf:about=""><dc:format>image/svg+xml</dc:format><dc:type
         rdf:resource="http://purl.org/dc/dcmitype/StillImage" /><dc:title /></cc:Work></rdf:RDF></metadata><defs
   id="defs935">
	
	
</defs><sodipodi:namedview
   pagecolor="#ffffff"
   bordercolor="#666666"
   borderopacity="1"
   objecttolerance="10"
   gridtolerance="10"
   guidetolerance="10"
   inkscape:pageopacity="0"
   inkscape:pageshadow="2"
   inkscape:window-width="2560"
   inkscape:window-height="1044"
   id="namedview933"
   showgrid="false"
   inkscape:zoom="0.9965536"
   inkscape:cx="-62.118466"
   inkscape:cy="136.29817"
   inkscape:window-x="0"
   inkscape:window-y="0"
   inkscape:window-maximized="1"
   inkscape:current-layer="Capa_1" />

<g
   id="g902"
   transform="translate(0,144.18301)">
</g>
<g
   id="g904"
   transform="translate(0,144.18301)">
</g>
<g
   id="g906"
   transform="translate(0,144.18301)">
</g>
<g
   id="g908"
   transform="translate(0,144.18301)">
</g>
<g
   id="g910"
   transform="translate(0,144.18301)">
</g>
<g
   id="g912"
   transform="translate(0,144.18301)">
</g>
<g
   id="g914"
   transform="translate(0,144.18301)">
</g>
<g
   id="g916"
   transform="translate(0,144.18301)">
</g>
<g
   id="g918"
   transform="translate(0,144.18301)">
</g>
<g
   id="g920"
   transform="translate(0,144.18301)">
</g>
<g
   id="g922"
   transform="translate(0,144.18301)">
</g>
<g
   id="g924"
   transform="translate(0,144.18301)">
</g>
<g
   id="g926"
   transform="translate(0,144.18301)">
</g>
<g
   id="g928"
   transform="translate(0,144.18301)">
</g>
<g
   id="g930"
   transform="translate(0,144.18301)">
</g>
<path
   style="fill:#ffccaa;fill-opacity:1;stroke:#ffe6d5;stroke-width:1.28520405;stroke-miterlimit:4;stroke-dasharray:none;stroke-opacity:1"
   inkscape:connector-curvature="0"
   id="path896"
   d="m 207.1902,37.060157 c -0.94153,-3.709934 -2.08767,-7.402447 -3.49329,-11.062866 l -1.60283,-4.173905 c -0.65686,-1.706423 -3.11966,-2.911281 -5.95612,-2.911281 H 19.611935 c -2.834973,0 -5.299264,1.204858 -5.95463,2.910365 l -1.60431,4.177572 C 10.64737,29.659544 9.501222,33.350223 8.559691,37.060157 Z" /><path
   style="fill:#ffe6d5;fill-opacity:1;stroke:#ffccaa;stroke-width:1;stroke-miterlimit:4;stroke-dasharray:none;stroke-opacity:1"
   inkscape:connector-curvature="0"
   id="path898"
   d="M 8.4329907,37.141204 C 8.0213247,43.924996 7.8850691,50.72908 8.0764068,57.534615 L 17.40412,389.48235 c 0.09132,3.23824 2.742507,5.8155 5.980753,5.8155 h 5.830002 v 28.46294 c 0,3.44553 2.793241,6.24022 6.238769,6.24022 h 31.73162 c 3.445528,0 6.238769,-2.79324 6.238769,-6.24022 v -28.46294 h 4.328291 c 3.13243,0 5.735782,-2.41636 5.967707,-5.54154 L 104.23375,113.23708 c 0.14061,-1.90613 1.72929,-3.3803 3.64122,-3.3803 1.91192,0 3.49916,1.47417 3.64121,3.3803 l 20.51372,276.51923 c 0.23193,3.12373 2.83383,5.54154 5.96771,5.54154 h 5.72998 v 28.46294 c 0,3.44553 2.79325,6.24022 6.23877,6.24022 h 31.73162 c 3.44553,0 6.23877,-2.79324 6.23877,-6.24022 v -28.46294 h 4.42686 c 3.23825,0 5.88943,-2.57726 5.98075,-5.8155 l 9.35526,-331.943387 c 0.19134,-6.808433 0.0565,-13.613967 -0.35514,-20.399208 H 8.4329907 Z" /><rect
   style="fill:#ffccaa;fill-opacity:1;stroke:#ffe6d5;stroke-width:0.86928725;stroke-miterlimit:4;stroke-dasharray:none;stroke-opacity:1"
   id="rect839"
   width="38.687313"
   height="32.247131"
   x="32.086109"
   y="394.05334" /><rect
   y="393.65424"
   x="146.47632"
   height="32.247131"
   width="38.687313"
   id="rect841"
   style="fill:#ffccaa;fill-opacity:1;stroke:#ffe6d5;stroke-width:0.86928725;stroke-miterlimit:4;stroke-dasharray:none;stroke-opacity:1" /></svg>