<?xml version="1.0" encoding="UTF-8" standalone="no"?>
<svg
   xmlns:osb="http://www.openswatchbook.org/uri/2009/osb"
   xmlns:dc="http://purl.org/dc/elements/1.1/"
   xmlns:cc="http://creativecommons.org/ns#"
   xmlns:rdf="http://www.w3.org/1999/02/22-rdf-syntax-ns#"
   xmlns:svg="http://www.w3.org/2000/svg"
   xmlns="http://www.w3.org/2000/svg"
   viewBox="0 0 999.99995 1225"
   height="1225"
   width="1000"
   xml:space="preserve"
   id="svg3713"
   version="1.1"><metadata
     id="metadata3719"><rdf:RDF><cc:Work
         rdf:about=""><dc:format>image/svg+xml</dc:format><dc:type
           rdf:resource="http://purl.org/dc/dcmitype/StillImage" /><dc:title></dc:title></cc:Work></rdf:RDF></metadata><defs
     id="defs3717"><linearGradient
       osb:paint="gradient"
       id="linearGradient82767"><stop
         id="stop82763"
         offset="0"
         style="stop-color:#ad9786;stop-opacity:1;" /><stop
         id="stop82765"
         offset="1"
         style="stop-color:#ad9786;stop-opacity:0;" /></linearGradient><clipPath
       id="clipPath3731"
       clipPathUnits="userSpaceOnUse"><path
         id="path3729"
         d="M 0,800 H 800 V 0 H 0 Z" /></clipPath><clipPath
       id="clipPath3739"
       clipPathUnits="userSpaceOnUse"><path
         id="path3737"
         d="M 75.9268,440.782 H 262.12 V 425.835 H 75.9268 Z" /></clipPath><clipPath
       id="clipPath3755"
       clipPathUnits="userSpaceOnUse"><path
         id="path3753"
         d="M 305.106,440.782 H 491.3 V 425.835 H 305.106 Z" /></clipPath><clipPath
       id="clipPath3771"
       clipPathUnits="userSpaceOnUse"><path
         id="path3769"
         d="M 537.88,440.782 H 724.073 V 425.835 H 537.88 Z" /></clipPath><clipPath
       id="clipPath3789"
       clipPathUnits="userSpaceOnUse"><path
         id="path3787"
         d="M 0,800 H 800 V 0 H 0 Z" /></clipPath><clipPath
       id="clipPath4205"
       clipPathUnits="userSpaceOnUse"><path
         id="path4203"
         d="M 439.217,118.22 H 694.105 V 97.7578 H 439.217 Z" /></clipPath><clipPath
       id="clipPath4457"
       clipPathUnits="userSpaceOnUse"><path
         id="path4455"
         d="M 105.896,115.983 H 360.781 V 95.5215 H 105.896 Z" /></clipPath><clipPath
       id="clipPath4741"
       clipPathUnits="userSpaceOnUse"><path
         id="path4739"
         d="M 280.789,43.0762 H 519.211 V 20.002 H 280.789 Z" /></clipPath><clipPath
       id="clipPath4877"
       clipPathUnits="userSpaceOnUse"><path
         id="path4875"
         d="M 0,800 H 800 V 0 H 0 Z" /></clipPath><radialGradient
       id="radialGradient4887"
       spreadMethod="pad"
       gradientTransform="matrix(400,0,0,-400,400,400)"
       gradientUnits="userSpaceOnUse"
       r="1"
       cy="0"
       cx="0"
       fy="0"
       fx="0"><stop
         id="stop4883"
         offset="0"
         style="stop-opacity:1;stop-color:#ffffff" /><stop
         id="stop4885"
         offset="1"
         style="stop-opacity:1;stop-color:#1d1d1b" /></radialGradient><clipPath
       id="clipPath4909"
       clipPathUnits="userSpaceOnUse"><path
         id="path4907"
         d="M 0,800 H 800 V 0 H 0 Z" /></clipPath><clipPath
       id="clipPath4913"
       clipPathUnits="userSpaceOnUse"><path
         id="path4911"
         d="M 0.365234,797.376 H 800 V 471.355 H 0.365234 Z" /></clipPath><clipPath
       id="clipPath4917"
       clipPathUnits="userSpaceOnUse"><path
         id="path4915"
         d="M 0.365234,496.836 H 800 V 170.813 H 0.365234 Z" /></clipPath><clipPath
       id="clipPath4921"
       clipPathUnits="userSpaceOnUse"><path
         id="path4919"
         d="M 0.823242,182.021 H 800 V 0.00390625 H 0.823242 Z" /></clipPath><clipPath
       id="clipPath4925"
       clipPathUnits="userSpaceOnUse"><path
         id="path4923"
         d="M 0,790.57 H 769.022 V 152.377 H 0 Z" /></clipPath><clipPath
       id="clipPath4929"
       clipPathUnits="userSpaceOnUse"><path
         id="path4927"
         d="M 5.59814,800 H 800 V 361.265 H 5.59814 Z" /></clipPath><clipPath
       id="clipPath4933"
       clipPathUnits="userSpaceOnUse"><path
         id="path4931"
         d="M 0,260.65 H 800 V 0.00390625 H 0 Z" /></clipPath><clipPath
       id="clipPath4937"
       clipPathUnits="userSpaceOnUse"><path
         id="path4935"
         d="M 366.998,544.377 H 800 V 77.6738 H 366.998 Z" /></clipPath><clipPath
       id="clipPath4941"
       clipPathUnits="userSpaceOnUse"><path
         id="path4939"
         d="M 611.916,542.722 H 800 V 77.6738 H 611.916 Z" /></clipPath><clipPath
       id="clipPath4945"
       clipPathUnits="userSpaceOnUse"><path
         id="path4943"
         d="M 366.998,544.377 H 792.083 V 79.3291 H 366.998 Z" /></clipPath><clipPath
       id="clipPath4949"
       clipPathUnits="userSpaceOnUse"><path
         id="path4947"
         d="M 5.99072,483.672 H 795.989 V 201.19 H 5.99072 Z" /></clipPath><clipPath
       id="clipPath4953"
       clipPathUnits="userSpaceOnUse"><path
         id="path4951"
         d="M 5.9917,269.092 H 795.989 V 0 H 5.9917 Z" /></clipPath><clipPath
       id="clipPath4957"
       clipPathUnits="userSpaceOnUse"><path
         id="path4955"
         d="M 5.99072,736.862 H 795.989 V 454.38 H 5.99072 Z" /></clipPath><clipPath
       clipPathUnits="userSpaceOnUse"
       id="clipPath82949"><path
         d="M 0,800 H 800 V 0 H 0 Z"
         id="path82947" /></clipPath><clipPath
       clipPathUnits="userSpaceOnUse"
       id="clipPath82957"><path
         d="M 75.9268,440.782 H 262.12 V 425.835 H 75.9268 Z"
         id="path82955" /></clipPath><clipPath
       clipPathUnits="userSpaceOnUse"
       id="clipPath82973"><path
         d="M 305.106,440.782 H 491.3 V 425.835 H 305.106 Z"
         id="path82971" /></clipPath><clipPath
       clipPathUnits="userSpaceOnUse"
       id="clipPath82989"><path
         d="M 537.88,440.782 H 724.073 V 425.835 H 537.88 Z"
         id="path82987" /></clipPath><clipPath
       clipPathUnits="userSpaceOnUse"
       id="clipPath83007"><path
         d="M 0,800 H 800 V 0 H 0 Z"
         id="path83005" /></clipPath><clipPath
       clipPathUnits="userSpaceOnUse"
       id="clipPath83423"><path
         d="M 439.217,118.22 H 694.105 V 97.7578 H 439.217 Z"
         id="path83421" /></clipPath><clipPath
       clipPathUnits="userSpaceOnUse"
       id="clipPath83675"><path
         d="M 105.896,115.983 H 360.781 V 95.5215 H 105.896 Z"
         id="path83673" /></clipPath><clipPath
       clipPathUnits="userSpaceOnUse"
       id="clipPath83959"><path
         d="M 280.789,43.0762 H 519.211 V 20.002 H 280.789 Z"
         id="path83957" /></clipPath><clipPath
       clipPathUnits="userSpaceOnUse"
       id="clipPath84095"><path
         d="M 0,800 H 800 V 0 H 0 Z"
         id="path84093" /></clipPath><radialGradient
       fx="0"
       fy="0"
       cx="0"
       cy="0"
       r="1"
       gradientUnits="userSpaceOnUse"
       gradientTransform="matrix(400,0,0,-400,400,400)"
       spreadMethod="pad"
       id="radialGradient84105"><stop
         style="stop-opacity:1;stop-color:#ffffff"
         offset="0"
         id="stop84101" /><stop
         style="stop-opacity:1;stop-color:#1d1d1b"
         offset="1"
         id="stop84103" /></radialGradient><clipPath
       clipPathUnits="userSpaceOnUse"
       id="clipPath84127"><path
         d="M 0,800 H 800 V 0 H 0 Z"
         id="path84125" /></clipPath><clipPath
       clipPathUnits="userSpaceOnUse"
       id="clipPath84131"><path
         d="M 0.365234,797.376 H 800 V 471.355 H 0.365234 Z"
         id="path84129" /></clipPath><clipPath
       clipPathUnits="userSpaceOnUse"
       id="clipPath84135"><path
         d="M 0.365234,496.836 H 800 V 170.813 H 0.365234 Z"
         id="path84133" /></clipPath><clipPath
       clipPathUnits="userSpaceOnUse"
       id="clipPath84139"><path
         d="M 0.823242,182.021 H 800 V 0.00390625 H 0.823242 Z"
         id="path84137" /></clipPath><clipPath
       clipPathUnits="userSpaceOnUse"
       id="clipPath84143"><path
         d="M 0,790.57 H 769.022 V 152.377 H 0 Z"
         id="path84141" /></clipPath><clipPath
       clipPathUnits="userSpaceOnUse"
       id="clipPath84147"><path
         d="M 5.59814,800 H 800 V 361.265 H 5.59814 Z"
         id="path84145" /></clipPath><clipPath
       clipPathUnits="userSpaceOnUse"
       id="clipPath84151"><path
         d="M 0,260.65 H 800 V 0.00390625 H 0 Z"
         id="path84149" /></clipPath><clipPath
       clipPathUnits="userSpaceOnUse"
       id="clipPath84155"><path
         d="M 366.998,544.377 H 800 V 77.6738 H 366.998 Z"
         id="path84153" /></clipPath><clipPath
       clipPathUnits="userSpaceOnUse"
       id="clipPath84159"><path
         d="M 611.916,542.722 H 800 V 77.6738 H 611.916 Z"
         id="path84157" /></clipPath><clipPath
       clipPathUnits="userSpaceOnUse"
       id="clipPath84163"><path
         d="M 366.998,544.377 H 792.083 V 79.3291 H 366.998 Z"
         id="path84161" /></clipPath><clipPath
       clipPathUnits="userSpaceOnUse"
       id="clipPath84167"><path
         d="M 5.99072,483.672 H 795.989 V 201.19 H 5.99072 Z"
         id="path84165" /></clipPath><clipPath
       clipPathUnits="userSpaceOnUse"
       id="clipPath84171"><path
         d="M 5.9917,269.092 H 795.989 V 0 H 5.9917 Z"
         id="path84169" /></clipPath><clipPath
       clipPathUnits="userSpaceOnUse"
       id="clipPath84175"><path
         d="M 5.99072,736.862 H 795.989 V 454.38 H 5.99072 Z"
         id="path84173" /></clipPath><clipPath
       clipPathUnits="userSpaceOnUse"
       id="clipPath118196"><path
         d="M 0,800 H 800 V 0 H 0 Z"
         id="path118194" /></clipPath><clipPath
       clipPathUnits="userSpaceOnUse"
       id="clipPath118204"><path
         d="M 75.9268,440.782 H 262.12 V 425.835 H 75.9268 Z"
         id="path118202" /></clipPath><clipPath
       clipPathUnits="userSpaceOnUse"
       id="clipPath118220"><path
         d="M 305.106,440.782 H 491.3 V 425.835 H 305.106 Z"
         id="path118218" /></clipPath><clipPath
       clipPathUnits="userSpaceOnUse"
       id="clipPath118236"><path
         d="M 537.88,440.782 H 724.073 V 425.835 H 537.88 Z"
         id="path118234" /></clipPath><clipPath
       clipPathUnits="userSpaceOnUse"
       id="clipPath118254"><path
         d="M 0,800 H 800 V 0 H 0 Z"
         id="path118252" /></clipPath><clipPath
       clipPathUnits="userSpaceOnUse"
       id="clipPath118670"><path
         d="M 439.217,118.22 H 694.105 V 97.7578 H 439.217 Z"
         id="path118668" /></clipPath><clipPath
       clipPathUnits="userSpaceOnUse"
       id="clipPath118922"><path
         d="M 105.896,115.983 H 360.781 V 95.5215 H 105.896 Z"
         id="path118920" /></clipPath><clipPath
       clipPathUnits="userSpaceOnUse"
       id="clipPath119206"><path
         d="M 280.789,43.0762 H 519.211 V 20.002 H 280.789 Z"
         id="path119204" /></clipPath><clipPath
       clipPathUnits="userSpaceOnUse"
       id="clipPath119342"><path
         d="M 0,800 H 800 V 0 H 0 Z"
         id="path119340" /></clipPath><radialGradient
       fx="0"
       fy="0"
       cx="0"
       cy="0"
       r="1"
       gradientUnits="userSpaceOnUse"
       gradientTransform="matrix(400,0,0,-400,400,400)"
       spreadMethod="pad"
       id="radialGradient119352"><stop
         style="stop-opacity:1;stop-color:#ffffff"
         offset="0"
         id="stop119348" /><stop
         style="stop-opacity:1;stop-color:#1d1d1b"
         offset="1"
         id="stop119350" /></radialGradient><clipPath
       clipPathUnits="userSpaceOnUse"
       id="clipPath119374"><path
         d="M 0,800 H 800 V 0 H 0 Z"
         id="path119372" /></clipPath><clipPath
       clipPathUnits="userSpaceOnUse"
       id="clipPath119378"><path
         d="M 0.365234,797.376 H 800 V 471.355 H 0.365234 Z"
         id="path119376" /></clipPath><clipPath
       clipPathUnits="userSpaceOnUse"
       id="clipPath119382"><path
         d="M 0.365234,496.836 H 800 V 170.813 H 0.365234 Z"
         id="path119380" /></clipPath><clipPath
       clipPathUnits="userSpaceOnUse"
       id="clipPath119386"><path
         d="M 0.823242,182.021 H 800 V 0.00390625 H 0.823242 Z"
         id="path119384" /></clipPath><clipPath
       clipPathUnits="userSpaceOnUse"
       id="clipPath119390"><path
         d="M 0,790.57 H 769.022 V 152.377 H 0 Z"
         id="path119388" /></clipPath><clipPath
       clipPathUnits="userSpaceOnUse"
       id="clipPath119394"><path
         d="M 5.59814,800 H 800 V 361.265 H 5.59814 Z"
         id="path119392" /></clipPath><clipPath
       clipPathUnits="userSpaceOnUse"
       id="clipPath119398"><path
         d="M 0,260.65 H 800 V 0.00390625 H 0 Z"
         id="path119396" /></clipPath><clipPath
       clipPathUnits="userSpaceOnUse"
       id="clipPath119402"><path
         d="M 366.998,544.377 H 800 V 77.6738 H 366.998 Z"
         id="path119400" /></clipPath><clipPath
       clipPathUnits="userSpaceOnUse"
       id="clipPath119406"><path
         d="M 611.916,542.722 H 800 V 77.6738 H 611.916 Z"
         id="path119404" /></clipPath><clipPath
       clipPathUnits="userSpaceOnUse"
       id="clipPath119410"><path
         d="M 366.998,544.377 H 792.083 V 79.3291 H 366.998 Z"
         id="path119408" /></clipPath><clipPath
       clipPathUnits="userSpaceOnUse"
       id="clipPath119414"><path
         d="M 5.99072,483.672 H 795.989 V 201.19 H 5.99072 Z"
         id="path119412" /></clipPath><clipPath
       clipPathUnits="userSpaceOnUse"
       id="clipPath119418"><path
         d="M 5.9917,269.092 H 795.989 V 0 H 5.9917 Z"
         id="path119416" /></clipPath><clipPath
       clipPathUnits="userSpaceOnUse"
       id="clipPath119422"><path
         d="M 5.99072,736.862 H 795.989 V 454.38 H 5.99072 Z"
         id="path119420" /></clipPath></defs><g
     transform="translate(0,158.33325)"
     style="display:inline"
     id="layer3"><g
       style="display:inline"
       id="layer14" /><g
       id="layer16" /><g
       id="layer17" /><g
       id="layer18" /><g
       id="layer15" /><g
       id="layer4" /><g
       id="layer5"><g
         id="layer11" /><g
         id="layer12" /><g
         id="layer13"><g
           transform="matrix(3.3239106,0,0,3.2302235,1639.4345,-383.15155)"
           id="g235650"><path
             style="display:inline;fill:#d8c3b3;fill-opacity:1;stroke:#b7a192;stroke-width:0.1;stroke-linecap:butt;stroke-linejoin:miter;stroke-miterlimit:4;stroke-dasharray:none;stroke-opacity:1"
             d="m -316.49128,191.09877 c 0,0 14.18633,-1.76777 24.92552,-15.07022 0,0 5.34749,-6.67332 7.51301,-15.9099 0,0 8.67752,-0.84179 9.06753,-10.03313 0,0 -0.40547,-7.77712 -7.43235,-9.98683 l -0.68325,-6.9565 -13.23791,-27.51495 c 0,0 -13.34664,-12.1976 -32.88047,-8.57367 0,0 -31.1127,-5.56847 -34.29468,24.13001 l -0.0616,12.01461 0.16923,2.84356 0.0312,4.09375 c 0,0 -5.5,-0.125 -8.03125,5.6875 0,0 -3.11193,8.02008 3.78236,12.88144 0,0 2.60746,1.81196 5.43589,1.37002 0,0 3.88909,15.55635 13.6118,22.22967 0,0 4.37523,5.83363 19.0035,8.75044 l 0.11048,13.01519 c 0,0 -4.99394,2.03293 -3.7344,9.30287 1.25953,7.26994 9.56803,9.63433 9.56803,9.63433 0,0 7.94828,0.56007 9.23659,-5.43588 0,0 4.99394,-7.42462 -0.37565,-12.35227 l -1.61309,-1.14905 z"
             id="path235528" /><path
             style="fill:#d9bb60;fill-opacity:1;stroke:#d9bb60;stroke-width:0.1;stroke-linecap:butt;stroke-linejoin:miter;stroke-miterlimit:4;stroke-dasharray:none;stroke-opacity:1"
             d="m -350.875,305.04175 c 0,0 0.8125,24.25 0.875,30.75 l 1.8125,51.9375 1.63682,35.9804 12.124,-0.18267 c 0,0 1.23918,-11.86023 1.67668,-14.29773 l 3,-26.5625 2.25,-17.8125 3.82092,-33.35073 3.55408,30.85073 3.9375,31.6875 3.75175,30.28083 11.86933,-0.0427 1.75392,-32.67566 0.6875,-24.625 1.8125,-39.5625 0.25,-21.875 -20.75,-2 -30.6875,-1.1875 z"
             id="path235534" /><path
             style="fill:#948f8d;fill-opacity:1;stroke:#948f8d;stroke-width:0.1;stroke-linecap:butt;stroke-linejoin:miter;stroke-miterlimit:4;stroke-dasharray:none;stroke-opacity:1"
             d="m -346.55068,423.70965 c 0,0 -14.79768,4.66764 -17.22836,7.84962 0,0 -1.9114,1.78986 0.27621,2.12132 l 16.2966,0.0331 13.27688,0.0399 -0.49733,-10.22667 z"
             id="path235537" /><path
             id="path235539"
             d="m -300.31175,424.50531 c 0,0 14.79768,4.66764 17.22836,7.84962 0,0 1.9114,1.78986 -0.27621,2.12132 l -16.2966,0.0331 -13.27688,0.0399 0.49733,-10.22667 z"
             style="fill:#948f8d;fill-opacity:1;stroke:#948f8d;stroke-width:0.1;stroke-linecap:butt;stroke-linejoin:miter;stroke-miterlimit:4;stroke-dasharray:none;stroke-opacity:1" /><path
             style="fill:#d8c3b3;fill-opacity:1;stroke:#d8c3b3;stroke-width:0.1;stroke-linecap:butt;stroke-linejoin:miter;stroke-miterlimit:4;stroke-dasharray:none;stroke-opacity:1"
             d="m -355.20537,271.97411 c 0,0 -0.88389,15.99829 -2.38649,27.75394 l -2.89375,22.02613 -3.62101,-0.97227 c 0,0 -1.05045,10.21892 -6.23926,12.70214 -5.18881,2.48322 -11.19922,-0.52198 -9.0779,-11.65892 l 9.104,-55.24271 z"
             id="path235542" /><path
             style="fill:#d8c3b3;fill-opacity:1;stroke:#d8c3b3;stroke-width:0.1;stroke-linecap:butt;stroke-linejoin:miter;stroke-miterlimit:4;stroke-dasharray:none;stroke-opacity:1"
             d="m -288.64895,272.23927 4.57533,49.51491 h 2.376 l 0.47329,8.37946 c 0,0 0.53033,5.56846 7.68979,4.94975 7.15946,-0.61872 6.36396,-6.18719 6.36396,-6.18719 l 0.3063,-9.14602 c 0,0 -7.37737,-48.48318 -7.9077,-48.83673 -0.53033,-0.35356 -13.52341,0.0884 -13.52341,0.0884 z"
             id="path235544" /><path
             style="fill:#66615e;fill-opacity:1;stroke:#66615e;stroke-width:0.1;stroke-linecap:butt;stroke-linejoin:miter;stroke-miterlimit:4;stroke-dasharray:none;stroke-opacity:1"
             d="m -329.46227,204.06976 c 0,0 -16.81588,-0.64082 -29.14605,10.5845 0,0 -7.24785,7.51301 -10.20886,23.95324 l -4.5407,33.89469 h 19.23466 c 0,0 1.30847,-16.73018 2.27867,-17.932 l -0.002,17.97844 c 0,0 -0.43594,32.57753 0.24607,32.55222 0.68201,-0.0253 42.97584,0.59341 42.97584,0.59341 0,0 13.04335,0.69474 13.46016,0.17059 0.41681,-0.52414 0.9176,-19.52213 0.9176,-19.52213 l 0.49573,-30.2632 2.07467,16.42267 h 18.44133 l -1.9345,-14.847 c 0,0 -2.82843,-27.57716 -6.54074,-33.49918 0,0 -6.31984,-17.14734 -26.60496,-19.26866 0,0 -7.6014,-0.88388 -8.06544,-0.81759 0,0 4.66248,3.95538 2.98311,10.31934 -1.67938,6.36396 -6.93849,7.20365 -10.42983,7.38042 0,0 -8.44109,-1.23743 -8.83883,-8.83883 0,0 -0.53034,-5.52427 3.20407,-8.86093 z"
             id="path235531" /><path
             style="fill:#4f423a;fill-opacity:1;stroke:#4f423a;stroke-width:0.1;stroke-linecap:butt;stroke-linejoin:miter;stroke-miterlimit:4;stroke-dasharray:none;stroke-opacity:1"
             d="m -359.28881,133.19819 h -4.28667 c 0,0 -1.60013,-16.0375 -0.92453,-21.03142 0.6756,-4.99391 3.69206,-19.04383 18.40853,-26.02191 0,0 -3.87728,-3.25934 -3.68978,-5.75934 0.1875,-2.5 14.23979,-2.92951 21.21364,0.42587 6.97386,3.35538 -5.6172,-4.30653 -5.6172,-4.30653 0,0 17.21606,-2.68184 27.9348,3.22441 0,0 7.8219,4.20751 9.8172,8.66625 0,0 -2.80596,-8.10858 -2.90533,-8.91866 -0.0994,-0.81009 8.05688,2.03366 11.93188,7.97116 0,0 3.61867,3.46258 5.87257,20.21217 0,0 0.18033,22.76812 -1.56712,25.482 0,0 -4.22232,0.54837 -6.6088,0.0622 0,0 -2.34229,-3.35873 -3.35876,-9.76688 0,0 -0.36823,-6.47028 -4.0511,-9.95265 l -1.12,2.296 c 0,0 -0.75726,-4.40097 -9.99067,-7.896 0,0 -1.18273,5.34263 -10.58237,14.03191 0,0 -7.125,5.9375 -14.12499,7.5625 0,0 2.28199,-1.29089 3.32055,-5.48934 0,0 0.45823,-2.74536 0.008,-6.09041 0,0 -0.53833,3.21779 -3.12369,4.21216 0,0 -1.31734,0.68228 -2.59217,0.72784 0,0 1.46522,-1.19188 1.84087,-4.0645 0,0 0.43609,-4.11466 -0.44487,-7.48216 0,0 -0.21345,2.35725 -3.90826,2.97436 l -1.66374,-0.013 c 0,0 0.9014,-1.15812 1.08922,-2.10829 0,0 0.7704,-1.43599 0.54412,-5.14507 0,0 -7.50753,1.13466 -13.50753,8.54091 0,0 -4.5,5.4375 -6.15625,10.1875 0,0 -1.85885,5.84409 -1.75755,7.46892 z"
             id="path235504" /><path
             style="fill:#555554;fill-opacity:1;stroke:#b7a192;stroke-width:0.1;stroke-linecap:butt;stroke-linejoin:miter;stroke-miterlimit:4;stroke-dasharray:none;stroke-opacity:1"
             d="m -373.92189,139.82302 c 0,0 -0.17187,1.04687 0.8125,1.53125 0.98438,0.48437 1.6875,-0.5625 1.6875,-0.5625 0,0 0.8125,-2.60938 1.95313,-3.07813 1.14062,-0.46875 1.59375,-0.65625 3.60937,0.14063 2.01563,0.79687 6.01362,3.48188 11.14014,9.55858 0,0 -2.56326,14.47359 12.33017,16.41813 0,0 10.6508,1.67938 14.00956,-11.04854 l 11.49048,0.13258 c 0,0 1.45841,11.13693 14.09794,11.04854 0,0 13.74909,-0.933 12.50695,-16.26345 0,0 9.32497,-11.13693 14.00956,-10.29724 0,0 1.61832,-0.32985 2.82145,3.27952 0,0 0.53125,1.07813 1.70312,0.65625 1.17188,-0.42187 0.8125,-1.625 0.8125,-1.625 0,0 -1.09375,-4.70312 -5.51562,-5.07812 0,0 -2.90625,-0.0937 -6.53125,2.39062 0,0 -4.94922,3.61719 -8.1836,7.61719 0,0 -4.34533,-10.03087 -14.36602,-8.37091 0,0 -7.31125,0.6001 -10.6921,8.75392 0,0 -1.16452,3.27322 -0.89889,5.18728 l -10.85938,0.0156 c 0,0 0.45313,-12.71875 -12.95312,-14.28125 0,0 -8.96875,-0.62497 -12.9375,8.43753 0,0 -7.875,-9.46875 -14.21875,-9.75 0,0 -4.00003,-0.49996 -5.82814,5.18752 z"
             id="path235508" /><path
             style="fill:#d8c3b3;fill-opacity:1;stroke:#b7a192;stroke-width:0.1;stroke-linecap:butt;stroke-linejoin:miter;stroke-miterlimit:4;stroke-dasharray:none;stroke-opacity:1"
             d="m -341.43889,138.4856 c 0,0 11.64517,0.68501 10.6729,13.14777 0,0 -0.83969,8.79464 -10.73919,9.63433 0,0 -12.50695,-1.01647 -10.56241,-13.78858 0,0 1.57994,-8.15382 10.6287,-8.99352 z"
             id="path235510" /><path
             id="path235512"
             d="m -303.61567,138.86125 c 0,0 11.64517,0.68501 10.6729,13.14777 0,0 -0.83969,8.79464 -10.73919,9.63433 0,0 -12.50695,-1.01647 -10.56241,-13.78858 0,0 1.57994,-8.15382 10.6287,-8.99352 z"
             style="fill:#d8c3b3;fill-opacity:1;stroke:#000000;stroke-width:0.1;stroke-linecap:butt;stroke-linejoin:miter;stroke-miterlimit:4;stroke-dasharray:none;stroke-opacity:1" /><ellipse
             style="fill:#555554;fill-opacity:1;stroke:#524d4b;stroke-width:0.10939322;stroke-miterlimit:4;stroke-dasharray:none;stroke-opacity:1"
             id="path235521"
             cx="-341.53833"
             cy="150.11971"
             rx="2.8347788"
             ry="2.9231672" /><ellipse
             ry="2.9231672"
             rx="2.8347788"
             cy="150.11971"
             cx="-303.53833"
             id="ellipse235525"
             style="fill:#555554;fill-opacity:1;stroke:#524d4b;stroke-width:0.10939322;stroke-miterlimit:4;stroke-dasharray:none;stroke-opacity:1" /></g></g></g></g><g
     transform="translate(0,158.33325)"
     style="display:inline"
     id="layer19"><g
       id="layer20"><g
         id="layer23" /><g
         id="layer24" /><g
         style="display:inline"
         id="layer21" /><g
         id="layer22" /></g><g
       id="layer28"><g
         id="layer30" /><g
         id="layer29" /></g><g
       id="layer25"><g
         style="display:inline"
         id="layer26" /><g
         id="layer27"><g
           transform="matrix(3.3239106,0,0,3.2302235,1540.7084,-1823.4938)"
           id="g235763"><path
             style="fill:#bfaa9b;fill-opacity:1;stroke:#bfaa9b;stroke-width:0.1;stroke-linecap:butt;stroke-linejoin:miter;stroke-miterlimit:4;stroke-dasharray:none;stroke-opacity:1"
             d="m -253.34025,771.23367 2.60727,-1.26182 1.1812,-9.76515 c 0,0 -12.47837,-3.86274 -19.01911,-18.80037 0,0 -6.98268,0.44194 -8.22012,-6.98268 -1.23743,-7.42462 6.54074,-8.57367 6.54074,-8.57367 l 0.26517,-6.0988 4.68458,-4.86136 58.15953,-3.35875 4.22055,12.61743 -0.73581,2.58075 c 0,0 5.0625,2.625 3.375,9.59375 0,0 -1.6875,5.0625 -7.875,5.25 0,0 -3.65625,12.71875 -18.59375,18.53125 l -1.125,9.3125 c 0,0 2.16742,0.69528 4.66965,1.87889 l -1.60715,1.51173 -12.65625,1.98438 -13.76563,-1.78125 -1.89062,-1.17188 z"
             id="path235684" /><ellipse
             style="fill:#6a6a69;fill-opacity:1;stroke:#656564;stroke-width:0.1;stroke-miterlimit:4;stroke-dasharray:none;stroke-opacity:1"
             id="path235687"
             cx="-252.92969"
             cy="729.93237"
             rx="2.5390625"
             ry="2.40625" /><ellipse
             ry="2.40625"
             rx="2.5390625"
             cy="729.93237"
             cx="-222.92969"
             id="ellipse235689"
             style="fill:#6a6a69;fill-opacity:1;stroke:#656564;stroke-width:0.1;stroke-miterlimit:4;stroke-dasharray:none;stroke-opacity:1" /><path
             style="display:inline;fill:#c6a647;fill-opacity:1;stroke:#c6a647;stroke-width:0.1;stroke-linecap:butt;stroke-linejoin:miter;stroke-miterlimit:4;stroke-dasharray:none;stroke-opacity:1"
             d="m -276.02082,728.09924 c 0,0 0.7071,-23.21698 2.77082,-28.93249 2.06372,-5.71551 -2.625,-6.875 -2.625,-6.875 0,0 -13.57365,-0.72803 -23.25,-4.25 l -9.67635,-3.52197 c 0,0 5.05135,-1.72803 9.05135,-8.85303 0,0 3.62212,-10.73844 13.09732,-14.86137 0,0 2.39146,-4.5592 10.3592,-0.66027 7.96773,3.89893 15.04348,19.27164 15.04348,19.27164 0,0 4,-3.4375 13,-3.9375 0,0 7.2247,-0.50201 14.79985,4.12399 0,0 1.86285,-0.40467 1.344,-4.38933 0,0 1.55022,0.28537 0.836,3.97067 0,0 0.0826,-1.09596 4.52015,-1.11158 0,0 3.07986,0.0324 3.82118,0.37558 0,0 -6.82057,-1.02184 -7.024,1.91066 0,0 4.65594,-1.73937 8.74969,-0.56749 l 5.41113,2.6706 1.5689,-4.9387 c 0,0 5.84468,-10.03208 10.1978,-13.61181 0,0 5.17072,-5.2591 9.94369,-4.94974 0,0 3.88909,-0.86179 10.91596,5.96621 0,0 3.84489,3.7565 6.51864,9.41336 0,0 2.40858,4.70668 4.92765,7.04897 0,0 2.39977,2.19241 4.45921,3.12914 0,0 -13.43062,5.51082 -20.94363,6.68197 0,0 -8.44109,1.63518 -11.77775,1.34792 l -4.39732,0.13258 1.83406,5.87783 c 0,0 1.96664,5.45798 1.92244,10.34143 0,0 -0.30936,11.82194 -2.29809,15.24699 l -2.08438,6.61874 c 0,0 -2.75489,0.38604 -2.60021,-6.08841 0,0 -1.5026,-0.7071 -1.74567,-0.97227 -0.24306,-0.26516 0.83255,2.06468 0.83255,2.06468 0,0 -7.77347,-0.27827 -13.93734,-5.16 0,0 -0.4714,1.50154 7.14534,5.16 0,0 -9.35609,-0.76331 -21.80667,-7.18133 0,0 -17.4237,7.52244 -21.80933,7.18133 0,0 6.89327,-5.6612 6.83333,-7.44267 0,0 -5.11041,6.89989 -13.62266,7.44267 0,0 5.42801,-5.8805 5.61733,-6.03867 0,0 -10.49988,7.29778 -11.464,7.028 0,0 4.50852,-3.40056 3.92667,-7.18266 0,0 -2.26766,5.57778 -8.38534,8.52133 z"
             id="path235676" /><path
             style="fill:#c89850;fill-opacity:1;stroke:#c89850;stroke-width:0.10166842;stroke-linecap:butt;stroke-linejoin:miter;stroke-miterlimit:4;stroke-dasharray:none;stroke-opacity:1"
             d="m -269.36638,697.67929 c 0,0 -3.0715,2.90076 -6.18719,-0.0914 0,0 -2.43068,-1.73588 -0.86179,-5.34469 0,0 5.63476,-6.62377 11.71146,-12.51664 l 2.85053,-2.99212 c 0,0 2.86375,-2.09009 5.89549,0.56522 0,0 2.85495,2.51826 -0.0177,6.67524 z"
             id="path235679" /><path
             id="path235681"
             d="m -206.2707,697.72039 c 0,0 3.0715,2.80633 6.18719,-0.0884 0,0 2.43068,-1.67937 0.86179,-5.17071 0,0 -5.63476,-6.40815 -11.71146,-12.1092 l -2.85053,-2.89472 c 0,0 -2.86375,-2.02206 -5.89549,0.54682 0,0 -2.85495,2.43628 0.0177,6.45795 z"
             style="fill:#c89850;fill-opacity:1;stroke:#c89850;stroke-width:0.1;stroke-linecap:butt;stroke-linejoin:miter;stroke-miterlimit:4;stroke-dasharray:none;stroke-opacity:1" /><path
             style="fill:#494441;fill-opacity:1;stroke:#494441;stroke-width:0.1;stroke-linecap:butt;stroke-linejoin:miter;stroke-miterlimit:4;stroke-dasharray:none;stroke-opacity:1"
             d="m -250.13349,880.2823 0.0358,0.44616 c 0,0 -2.56327,1.96664 -3.91119,2.36439 -1.34792,0.39775 -2.69584,1.43631 -2.69584,1.43631 0,0 -1.78987,1.03856 0,1.17115 1.78986,0.13258 15.3406,0.054 15.3406,0.054 v -5.44933 z"
             id="path235705" /><path
             id="path235707"
             d="m -223.88142,880.2823 -0.0358,0.44616 c 0,0 2.56327,1.96664 3.91119,2.36439 1.34792,0.39775 2.69584,1.43631 2.69584,1.43631 0,0 1.78987,1.03856 0,1.17115 -1.78986,0.13258 -15.3406,0.054 -15.3406,0.054 v -5.44933 z"
             style="fill:#494441;fill-opacity:1;stroke:#494441;stroke-width:0.1;stroke-linecap:butt;stroke-linejoin:miter;stroke-miterlimit:4;stroke-dasharray:none;stroke-opacity:1" /><path
             style="fill:#bfaa9b;fill-opacity:1;stroke:#bfaa9b;stroke-width:0.1;stroke-linecap:butt;stroke-linejoin:miter;stroke-miterlimit:4;stroke-dasharray:none;stroke-opacity:1"
             d="m -251.65668,843.82204 1.52319,36.46026 8.76934,0.0227 2.8453,-37.95915 -13.16987,-0.61872 z"
             id="path235702" /><path
             id="path235709"
             d="m -222.35823,843.82204 -1.52319,36.46026 -8.76934,0.0227 -2.8453,-37.95915 13.16987,-0.61872 z"
             style="fill:#bfaa9b;fill-opacity:1;stroke:#bfaa9b;stroke-width:0.1;stroke-linecap:butt;stroke-linejoin:miter;stroke-miterlimit:4;stroke-dasharray:none;stroke-opacity:1" /><path
             style="display:inline;fill:#b79739;fill-opacity:1;stroke:#b79739;stroke-width:0.1;stroke-linecap:butt;stroke-linejoin:miter;stroke-miterlimit:4;stroke-dasharray:none;stroke-dashoffset:0;stroke-opacity:1"
             d="m -253.34025,771.23367 -3.8331,2.69797 c 0,0 1.9712,1.79146 2.56782,7.02847 0.59662,5.23701 0.28726,4.39732 0.28726,4.39732 0,0 -0.26516,5.81154 -0.97227,6.60703 l -2.09922,9.25868 -8.92274,33.25611 -2.4375,3.25 c 0,0 -0.64306,3.19236 -1.91135,6.39039 0,0 17.53632,-0.0503 18.99473,-0.006 l 31.1127,-0.0443 15.1539,0.0503 -3.26567,-10.19281 -6.93848,-11.71146 -5.36959,-31.28947 c 0,0 -1.03857,-4.77297 -0.92808,-7.22575 0.11048,-2.45277 1.04784,-8.04961 2.77782,-9.64851 l -4.08133,-2.756 c 0,0 -4.55222,1.99678 -6.67354,2.08517 0,0 -7.31414,1.23744 -8.44109,0.97227 0,0 -8.72835,-0.97227 -10.89386,-1.76776 z"
             id="path235693" /><path
             style="fill:#bfaa9b;fill-opacity:1;stroke:#bfaa9b;stroke-width:0.1;stroke-linecap:butt;stroke-linejoin:miter;stroke-miterlimit:4;stroke-dasharray:none;stroke-opacity:1"
             d="m -256.24072,804.16205 0.92808,-14.23052 c 0,0 -0.13258,-2.34229 1.06066,-4.68458 0,0 -0.0533,-9.19559 -2.92137,-11.31531 0,0 -4.59164,4.73038 -6.09424,9.98948 0,0 -1.04092,3.56459 -1.51483,9.69305 l -2.55103,17.35379 c 0,0 -2.51907,15.86571 -3.0494,20.01996 0,0 -1.19324,9.104 4.86136,9.67852 0,0 6.06457,0.12661 4.91054,-6.94147 h 1.348 l 1.47544,-11.00136 c 0,0 1.72356,-17.5451 1.54679,-18.56156 z"
             id="path235696" /><path
             style="fill:#bfaa9b;fill-opacity:1;stroke:#bfaa9b;stroke-width:0.1;stroke-linecap:butt;stroke-linejoin:miter;stroke-miterlimit:4;stroke-dasharray:none;stroke-opacity:1"
             d="m -217.16149,833.72497 h 2.74 c 0,0 -1.18905,6.47967 2.64747,7.0076 3.83652,0.52793 3.49277,-4.84707 3.49277,-4.84707 l 0.3571,-4.02986 -2.51335,-16.97014 -2.375,-16.4375 -1.3125,-10.78125 c 0,0 -1,-8.5625 -5.59375,-12.8125 0,0 -2.03144,2.40754 -2.14909,9.35274 0,0 1.11792,4.56644 0.91475,6.98185 l 1.20309,13.97791 1.625,17.96875 z"
             id="path235698" /></g></g></g></g><g
     transform="translate(0,158.33325)"
     style="display:inline"
     id="layer1"><g
       style="display:inline"
       id="layer6" /><g
       style="display:inline"
       id="layer7" /><g
       id="layer8" /><g
       style="display:inline"
       id="layer10" /><g
       id="layer9"><g
         transform="matrix(3.3239106,0,0,3.2302235,571.21547,-393.92922)"
         id="g235624"><path
           style="display:inline;fill:#836a4f;fill-opacity:1;stroke:#836a4f;stroke-width:1px;stroke-linecap:butt;stroke-linejoin:miter;stroke-opacity:1"
           d="m -157.21905,233.60046 3.30189,-5.50313 c 0,0 2.67296,-4.71699 2.98742,-13.67926 0.31447,-8.96225 -5.18868,-94.02515 -5.18868,-94.02515 0,0 0,-38.67926 58.018876,-37.73587 58.01887,0.9434 52.35849,41.98115 52.20126,45.91196 -0.15724,3.93083 -6.20595,72.64558 -4.87423,79.87422 1.33175,7.22863 0.64399,20.61636 4.88175,22.10063 0,0 1.27357,1.08253 1.38476,2.63905 0.1112,1.55652 -3.76624,2.68223 -9.33915,2.66834 0,0 -6.05933,0.22236 -10.08962,-0.36135 0,0 -2.95408,-8.33597 -4.09402,-10.96961 -1.13993,-2.63366 -8.04127,-7.39388 -15.66705,-7.78696 -7.62579,-0.39308 -10.82666,-0.0354 -10.82666,-0.0354 l -12.853776,-0.15722 -7.77201,0.61398 c 0,0 -8.38364,-1.28222 -12.82547,1.43003 -4.44182,2.71227 -4.625,7.37893 -4.625,7.37893 l -5.39858,9.40567 c 0,0 -13.12894,0.90409 -15.48743,0.11787 0,0 -4.20598,-0.78614 -3.73428,-1.88675 z"
           id="path81937" /><path
           style="display:inline;fill:#ad9786;fill-opacity:1;stroke:#ad9786;stroke-width:1px;stroke-linecap:butt;stroke-linejoin:miter;stroke-opacity:1"
           d="m -140.10169,156.74507 -0.83935,-6.82232 c 0,0 30.31817,-12.08921 39.80256,-20.45718 0,0 31.797566,18.90066 39.580186,20.23482 l 0.0982,7.60681 c 0,0 11.98399,-3.42821 12.43649,9.18534 0.44557,12.42048 -13.37134,9.50156 -13.37134,9.50156 0,0 -8.12964,26.88603 -31.40568,28.62937 l -0.64326,13.56819 c 0,0 6.91824,6.44655 0.0786,14.03302 0,0 -7.114766,6.91824 -14.583316,-1.49371 0,0 -4.59906,-6.52515 1.53302,-12.57861 l 0.0786,-13.16824 v 0 c 0,0 -13.36571,-0.83922 -24.44968,-14.07233 0,0 -5.85691,-7.7044 -7.38993,-14.4261 0,0 -7.86164,-0.0786 -9.55189,-9.15881 0,0 -0.47441,-9.56771 8.62679,-10.58181 z"
           id="path160012" /><path
           style="display:inline;fill:#3c3c3a;fill-opacity:1;stroke:#3c3c3a;stroke-width:0.1;stroke-linecap:butt;stroke-linejoin:miter;stroke-miterlimit:4;stroke-dasharray:none;stroke-opacity:1"
           d="m -119.79766,166.30487 c 0,0 -2.94811,0.27516 -2.63365,3.02673 0,0 -0.059,2.4371 2.71227,2.67295 2.77122,0.23585 2.92988,-2.85974 2.92988,-2.85974 0,0 -0.001,-2.87925 -3.0085,-2.83994 z"
           id="path160015" /><path
           id="path160822"
           d="m -82.468874,166.29792 c 0,0 -2.94811,0.27516 -2.63365,3.02673 0,0 -0.059,2.4371 2.71227,2.67295 2.77122,0.23585 2.92988,-2.85974 2.92988,-2.85974 0,0 -0.001,-2.87925 -3.0085,-2.83994 z"
           style="display:inline;fill:#3c3c3a;fill-opacity:1;stroke:#3c3c3a;stroke-width:0.1;stroke-linecap:butt;stroke-linejoin:miter;stroke-miterlimit:4;stroke-dasharray:none;stroke-opacity:1" /><path
           style="display:inline;fill:#916353;fill-opacity:1;stroke:#916353;stroke-width:1px;stroke-linecap:butt;stroke-linejoin:miter;stroke-opacity:1"
           d="m -131.51516,181.72027 c 0,0 -1.03176,-4.7807 4.8608,-5.78132 0,0 4.53511,0.43132 4.99147,5.10759 0.45636,4.67628 -5.10265,4.95423 -5.10265,4.95423 0,0 -3.88463,0.22225 -4.74962,-4.2805 z"
           id="path160824" /><path
           id="path160826"
           d="m -80.349014,183.38673 c 0,0 -1.03176,-4.7807 4.8608,-5.78132 0,0 4.53511,0.43132 4.99147,5.10759 0.45636,4.67628 -5.10265,4.95423 -5.10265,4.95423 0,0 -3.88463,0.22225 -4.74962,-4.2805 z"
           style="display:inline;fill:#916353;fill-opacity:1;stroke:#916353;stroke-width:1px;stroke-linecap:butt;stroke-linejoin:miter;stroke-opacity:1" /><path
           style="display:inline;fill:#934c34;fill-opacity:1;stroke:#934c34;stroke-width:0.1;stroke-linecap:butt;stroke-linejoin:miter;stroke-miterlimit:4;stroke-dasharray:none;stroke-opacity:1"
           d="m -103.8624,193.1441 c 0,0 -0.75047,-0.41693 -0.94503,-1.50093 -0.19457,-1.08401 1.55652,-1.91786 1.55652,-1.91786 0,0 0.97283,-0.44473 2.36258,-0.38913 1.389756,0.0556 2.529356,0.63928 2.529356,0.63928 0,0 1.16739,0.50031 1.25078,1.55653 0.0834,1.05621 -1.06317,1.61211 -1.06317,1.61211 0,0 0.8825,0.50726 1.03537,1.47314 0.15287,0.96588 -1.1396,1.72329 -1.1396,1.72329 0,0 -1.35549,0.76087 -2.699826,0.66881 -1.34435,-0.0921 -1.98364,-0.1546 -3.25526,-1.04404 0,0 -0.82691,-0.78521 -0.52811,-1.61906 0.2988,-0.83386 0.97978,-1.1674 0.97978,-1.1674 z"
           id="path160828" /><path
           style="display:inline;fill:#ad9786;fill-opacity:1;stroke:#ad9786;stroke-width:0.1;stroke-linecap:butt;stroke-linejoin:miter;stroke-miterlimit:4;stroke-dasharray:none;stroke-opacity:1"
           d="m -138.04492,248.77467 -0.33824,5.85187 c 0,0 -3.28676,25.77313 -5.47426,34.71063 0,0 -2.84297,18.2304 -3.07774,19.8027 -0.23476,1.5723 0.14024,8.0098 0.14024,8.0098 0,0 0.8125,4.875 5,4.9375 4.1875,0.0625 5.15033,-3.03456 5.45016,-5.36103 l 0.0763,-4.8196 3.97357,-0.007 3.4375,-12.0625 c 0,0 1.29363,-10.30077 1.7093,-15.93157 0,0 1.72817,-21.5058 1.72817,-23.8183 0,-2.3125 -0.5,-14.5 -0.5,-14.5 z"
           id="path82744" /><path
           style="display:inline;fill:#ad9786;fill-opacity:1;stroke:#ad9786;stroke-width:0.1;stroke-linecap:butt;stroke-linejoin:miter;stroke-miterlimit:4;stroke-dasharray:none;stroke-opacity:1"
           d="m -64.214124,248.76518 8.35269,27.44458 3.71232,12.72792 m 0,0 2.94794,10.27449 5.15625,13.90625 0.34375,2.84375 c 0,0 -0.90625,4.125 -4.03125,4.65625 l -2.9375,1.4375 c 0,0 -4.59375,1.125 -6.21875,-3.9375 -1.625,-5.0625 -2.23049,-6.21188 -2.23049,-6.21188 h -2.63067 c 0,0 -5.63884,-25.16312 -6.38884,-28.03812 0,0 -2.13006,-9.33804 -2.13006,-9.77998 0,0 -2.91681,-13.23616 -3.57972,-14.47359 l -1.63519,-12.99309 10.73919,0.0663 0.53033,2.07713"
           id="path82747" /><path
           style="display:inline;fill:#ad9786;fill-opacity:1;stroke:#ad9786;stroke-width:0.1;stroke-linecap:butt;stroke-linejoin:miter;stroke-miterlimit:4;stroke-dasharray:none;stroke-opacity:1"
           d="m -119.95436,382.6768 2.78444,36.78537 0.65983,12.41383 6.46517,1.33617 5.77656,-1.6643 0.78594,-13.2732 c 0,0 -1.04766,-34.0248 -0.125,-36.125 0.92266,-2.1002 -16.34694,0.52713 -16.34694,0.52713 z"
           id="path82751" /><path
           style="display:inline;fill:#ad9786;fill-opacity:1;stroke:#ad9786;stroke-width:0.1;stroke-linecap:butt;stroke-linejoin:miter;stroke-miterlimit:4;stroke-dasharray:none;stroke-opacity:1"
           d="m -99.248424,384.95795 -1.019936,46.58992 6.910936,4.1643 7.04866,-3.83657 3.38884,-47.66343 -13.6875,-0.5 z"
           id="path82753" /><path
           style="fill:#9f5840;fill-opacity:1;stroke:#9f5840;stroke-width:0.1;stroke-linecap:butt;stroke-linejoin:miter;stroke-miterlimit:4;stroke-dasharray:none;stroke-opacity:1"
           d="m -107.94133,217.02008 -9.09594,-0.38914 c 0,0 -10.61772,-0.88944 -15.67642,7.11554 0,0 -9.84725,21.60608 -9.5932,25.00633 l 13.42892,0.009 c 0,0 -2.50156,10.39536 3.11305,15.95437 0,0 3.05746,2.77976 2.72392,11.56301 -0.33355,8.78324 -6.11492,25.4047 -6.11492,25.4047 0,0 -8.22735,22.45842 -13.89754,33.02055 0,0 -6.44846,13.84195 -9.00561,22.45843 0,0 -3.16864,10.89567 0.16677,16.955 0,0 0.61149,4.39162 12.22984,6.89318 0,0 20.12364,5.00311 40.414036,3.9469 0,0 27.62831,1.22298 45.41717,-6.72641 0,0 5.55901,-3.22423 5.16988,-10.00623 -0.38913,-6.782 0.18046,-8.48598 -3.94006,-19.02997 0,0 -7.90064,-19.21606 -14.62705,-32.83565 0,0 -10.61803,-26.67336 -10.97921,-34.01622 0,0 -1.74281,-11.99662 1.64006,-16.84878 0,0 6.05933,-6.11491 3.44659,-16.73263 l 13.47548,-0.009 c 0,0 -5.4705,-18.33551 -9.30622,-24.89515 0,0 -5.00311,-7.11579 -12.73015,-7.17138 l -12.16823,0.44593 -0.0948,0.91464 c 0,0 4.02151,4.80259 2.7833,9.22476 -1.3463,4.42217 -4.20597,8.07782 -10.790096,8.11714 0,0 -8.95243,-1.23822 -9.1588,-10.67218 0,0 -0.27516,-2.79088 3.22327,-6.68239 z"
           id="path160831" /><path
           style="fill:#524d4b;fill-opacity:1;stroke:#524d4b;stroke-width:0.1;stroke-linecap:butt;stroke-linejoin:miter;stroke-miterlimit:4;stroke-dasharray:none;stroke-opacity:1"
           d="m -104.26836,431.54787 -12.772,0.35866 c 0,0 -1.5326,1.5019 -7.49881,4.28614 0,0 -1.83388,1.06637 -2.412,1.50387 l -0.9375,1 c 0,0 -0.35938,0.51563 -0.17188,0.78125 0.1875,0.26563 0.79688,0.39063 0.79688,0.39063 0,0 1.40625,0.14062 1.65625,0.0625 0.25,-0.0781 6.5,0.0156 6.5,0.0156 l 7,-0.0312 7.83906,-0.009 z"
           id="path82781" /><path
           style="fill:#524d4b;fill-opacity:1;stroke:#524d4b;stroke-width:0.1;stroke-linecap:butt;stroke-linejoin:miter;stroke-miterlimit:4;stroke-dasharray:none;stroke-opacity:1"
           d="m -100.26836,431.54787 v 8.35866 l 25.285936,-0.0694 c 0,0 2.51562,-0.008 0.0156,-2.14059 0,0 -2.34373,-1.67187 -4.54685,-2.5 0,0 -5.26794,-2.77664 -6.79509,-3.32094 -1.52715,-0.54429 -13.959596,-0.32773 -13.959596,-0.32773 z"
           id="path82783" /></g></g></g></svg>