<?xml version="1.0" encoding="UTF-8" standalone="no"?>
<!-- Generator: Adobe Illustrator 18.0.0, SVG Export Plug-In . SVG Version: 6.00 Build 0)  -->

<svg
   xmlns:dc="http://purl.org/dc/elements/1.1/"
   xmlns:cc="http://creativecommons.org/ns#"
   xmlns:rdf="http://www.w3.org/1999/02/22-rdf-syntax-ns#"
   xmlns:svg="http://www.w3.org/2000/svg"
   xmlns="http://www.w3.org/2000/svg"
   xmlns:xlink="http://www.w3.org/1999/xlink"
   xmlns:sodipodi="http://sodipodi.sourceforge.net/DTD/sodipodi-0.dtd"
   xmlns:inkscape="http://www.inkscape.org/namespaces/inkscape"
   version="1.1"
   id="Capa_1"
   x="0px"
   y="0px"
   viewBox="0 0 287.897 311.897"
   xml:space="preserve"
   sodipodi:docname="meia.svg"
   width="287.897"
   height="311.897"
   inkscape:version="0.92.3 (5aff6ba, 2018-11-25)"><metadata
   id="metadata55"><rdf:RDF><cc:Work
       rdf:about=""><dc:format>image/svg+xml</dc:format><dc:type
         rdf:resource="http://purl.org/dc/dcmitype/StillImage" /><dc:title /></cc:Work></rdf:RDF></metadata><defs
   id="defs53"><linearGradient
     inkscape:collect="always"
     id="linearGradient4569"><stop
       style="stop-color:#000000;stop-opacity:1;"
       offset="0"
       id="stop4565" /><stop
       style="stop-color:#000000;stop-opacity:0;"
       offset="1"
       id="stop4567" /></linearGradient><linearGradient
     inkscape:collect="always"
     xlink:href="#linearGradient4569"
     id="linearGradient4571"
     x1="14.744"
     y1="149.4485"
     x2="284.15279"
     y2="149.4485"
     gradientUnits="userSpaceOnUse" /></defs><sodipodi:namedview
   pagecolor="#ffffff"
   bordercolor="#666666"
   borderopacity="1"
   objecttolerance="10"
   gridtolerance="10"
   guidetolerance="10"
   inkscape:pageopacity="0"
   inkscape:pageshadow="2"
   inkscape:window-width="2560"
   inkscape:window-height="1044"
   id="namedview51"
   showgrid="false"
   inkscape:zoom="2.2332402"
   inkscape:cx="51.597096"
   inkscape:cy="156.89034"
   inkscape:window-x="0"
   inkscape:window-y="0"
   inkscape:window-maximized="1"
   inkscape:current-layer="Capa_1" />
<g
   id="g18"
   transform="translate(-4,6.999956)"
   style="fill-opacity:1;fill:#482322">
	<path
   d="m 232.886,9.9 c 0,-5.468 -4.432,-9.9 -9.9,-9.9 h -65.662 c -5.468,0 -9.901,4.433 -9.901,9.9 v 18.188 h 85.463 z"
   id="path2"
   inkscape:connector-curvature="0"
   style="fill-opacity:1;fill:#482322" />
	<rect
   x="14.744"
   y="43.089001"
   width="85.462997"
   height="16"
   id="rect4"
   style="fill-opacity:1;fill:#482322" />
	<path
   d="m 100.207,9.9 c 0,-5.468 -4.433,-9.9 -9.9,-9.9 H 24.644 c -5.468,0 -9.9,4.433 -9.9,9.9 v 18.188 h 85.463 z"
   id="path6"
   inkscape:connector-curvature="0"
   style="fill-opacity:1;fill:#482322" />
	<path
   d="m 129.701,244.381 c -25.431,0 -46.315,19.788 -48.097,44.774 7.727,6.361 17.384,9.742 27.186,9.742 8.058,0 16.208,-2.276 23.444,-7.037 14.518,-9.55 21.298,-26.434 18.693,-42.545 -6.41,-3.155 -13.613,-4.934 -21.226,-4.934 z"
   id="path8"
   inkscape:connector-curvature="0"
   style="fill-opacity:1;fill:#482322" />
	<path
   d="m 129.701,229.381 c 4.652,0 9.183,0.52 13.551,1.477 L 100.206,165.422 V 74.089 H 14.744 v 104.128 c 0,8.347 2.445,16.512 7.032,23.484 l 47.511,72.224 c 7.99,-25.772 32.05,-44.544 60.414,-44.544 z"
   id="path10"
   inkscape:connector-curvature="0"
   style="fill-opacity:1;fill:#482322" />
	<rect
   x="147.423"
   y="43.089001"
   width="85.462997"
   height="16"
   id="rect12"
   style="fill-opacity:1;fill:#482322" />
	<path
   d="m 262.381,229.381 c 4.652,0 9.182,0.52 13.551,1.477 L 232.886,165.422 V 74.089 h -85.463 v 104.128 c 0,8.347 2.445,16.512 7.032,23.484 l 47.511,72.224 c 7.991,-25.772 32.051,-44.544 60.415,-44.544 z"
   id="path14"
   inkscape:connector-curvature="0"
   style="fill-opacity:1;fill:#482322" />
	<path
   d="m 283.606,249.315 c -6.409,-3.155 -13.612,-4.934 -21.225,-4.934 -25.432,0 -46.315,19.788 -48.097,44.774 7.727,6.361 17.384,9.742 27.185,9.742 8.059,0 16.209,-2.276 23.444,-7.037 14.518,-9.55 21.298,-26.434 18.693,-42.545 z"
   id="path16"
   inkscape:connector-curvature="0"
   style="fill-opacity:1;fill:#482322" />
</g>
<g
   id="g20"
   transform="translate(0,12.999956)">
</g>
<g
   id="g22"
   transform="translate(0,12.999956)">
</g>
<g
   id="g24"
   transform="translate(0,12.999956)">
</g>
<g
   id="g26"
   transform="translate(0,12.999956)">
</g>
<g
   id="g28"
   transform="translate(0,12.999956)">
</g>
<g
   id="g30"
   transform="translate(0,12.999956)">
</g>
<g
   id="g32"
   transform="translate(0,12.999956)">
</g>
<g
   id="g34"
   transform="translate(0,12.999956)">
</g>
<g
   id="g36"
   transform="translate(0,12.999956)">
</g>
<g
   id="g38"
   transform="translate(0,12.999956)">
</g>
<g
   id="g40"
   transform="translate(0,12.999956)">
</g>
<g
   id="g42"
   transform="translate(0,12.999956)">
</g>
<g
   id="g44"
   transform="translate(0,12.999956)">
</g>
<g
   id="g46"
   transform="translate(0,12.999956)">
</g>
<g
   id="g48"
   transform="translate(0,12.999956)">
</g>
</svg>